<mxfile host="app.diagrams.net" modified="2022-09-25T08:56:23.330Z" agent="5.0 (Windows NT 10.0; Win64; x64) AppleWebKit/537.36 (KHTML, like Gecko) Chrome/105.0.0.0 Safari/537.36" etag="AAsZj6_IV0rf6_oPDwyf" version="20.3.3" type="github">
  <diagram id="J7A_s158Nz4W3Jq0DBzA" name="Page-1">
    <mxGraphModel dx="1732" dy="1251" grid="1" gridSize="10" guides="1" tooltips="1" connect="1" arrows="1" fold="1" page="1" pageScale="1" pageWidth="850" pageHeight="1100" math="0" shadow="0">
      <root>
        <mxCell id="0" />
        <mxCell id="1" parent="0" />
        <mxCell id="gY7JCMz-JdeeedZS7ncq-2" value=":HopeMain" style="rounded=0;whiteSpace=wrap;html=1;" vertex="1" parent="1">
          <mxGeometry x="190" y="160" width="120" height="60" as="geometry" />
        </mxCell>
        <mxCell id="gY7JCMz-JdeeedZS7ncq-6" value="" style="endArrow=none;dashed=1;html=1;dashPattern=1 3;strokeWidth=2;rounded=0;exitX=0.5;exitY=0;exitDx=0;exitDy=0;entryX=0.5;entryY=1;entryDx=0;entryDy=0;" edge="1" parent="1" target="gY7JCMz-JdeeedZS7ncq-2">
          <mxGeometry width="50" height="50" relative="1" as="geometry">
            <mxPoint x="250" y="290" as="sourcePoint" />
            <mxPoint x="260" y="220" as="targetPoint" />
          </mxGeometry>
        </mxCell>
        <mxCell id="gY7JCMz-JdeeedZS7ncq-7" value=":EmployeeDA" style="rounded=0;whiteSpace=wrap;html=1;" vertex="1" parent="1">
          <mxGeometry x="400" y="160" width="120" height="60" as="geometry" />
        </mxCell>
        <mxCell id="gY7JCMz-JdeeedZS7ncq-8" value="" style="endArrow=none;dashed=1;html=1;dashPattern=1 3;strokeWidth=2;rounded=0;entryX=0.5;entryY=1;entryDx=0;entryDy=0;exitX=0.5;exitY=0;exitDx=0;exitDy=0;" edge="1" parent="1">
          <mxGeometry width="50" height="50" relative="1" as="geometry">
            <mxPoint x="460" y="286" as="sourcePoint" />
            <mxPoint x="459.38" y="220" as="targetPoint" />
          </mxGeometry>
        </mxCell>
        <mxCell id="gY7JCMz-JdeeedZS7ncq-12" value=":Employee" style="rounded=0;whiteSpace=wrap;html=1;" vertex="1" parent="1">
          <mxGeometry x="630" y="164" width="120" height="60" as="geometry" />
        </mxCell>
        <mxCell id="gY7JCMz-JdeeedZS7ncq-13" value="" style="endArrow=none;dashed=1;html=1;dashPattern=1 3;strokeWidth=2;rounded=0;entryX=0.5;entryY=1;entryDx=0;entryDy=0;exitX=0.5;exitY=0;exitDx=0;exitDy=0;" edge="1" parent="1">
          <mxGeometry width="50" height="50" relative="1" as="geometry">
            <mxPoint x="690" y="290" as="sourcePoint" />
            <mxPoint x="689.3800000000001" y="224" as="targetPoint" />
          </mxGeometry>
        </mxCell>
        <mxCell id="gY7JCMz-JdeeedZS7ncq-27" value="" style="html=1;points=[];perimeter=orthogonalPerimeter;fillColor=#66FFB3;" vertex="1" parent="1">
          <mxGeometry x="245" y="290" width="10" height="480" as="geometry" />
        </mxCell>
        <mxCell id="gY7JCMz-JdeeedZS7ncq-28" value="" style="html=1;points=[];perimeter=orthogonalPerimeter;fillColor=#66FFB3;" vertex="1" parent="1">
          <mxGeometry x="454" y="286" width="10" height="724" as="geometry" />
        </mxCell>
        <mxCell id="gY7JCMz-JdeeedZS7ncq-29" value="" style="html=1;points=[];perimeter=orthogonalPerimeter;fillColor=#66FFB3;" vertex="1" parent="1">
          <mxGeometry x="685" y="286" width="10" height="274" as="geometry" />
        </mxCell>
        <mxCell id="gY7JCMz-JdeeedZS7ncq-30" value="create()" style="html=1;verticalAlign=bottom;endArrow=block;rounded=0;" edge="1" parent="1">
          <mxGeometry width="80" relative="1" as="geometry">
            <mxPoint x="255" y="390" as="sourcePoint" />
            <mxPoint x="450" y="390" as="targetPoint" />
          </mxGeometry>
        </mxCell>
        <mxCell id="gY7JCMz-JdeeedZS7ncq-31" value="create()" style="html=1;verticalAlign=bottom;endArrow=block;rounded=0;" edge="1" parent="1">
          <mxGeometry width="80" relative="1" as="geometry">
            <mxPoint x="464" y="420" as="sourcePoint" />
            <mxPoint x="680" y="420" as="targetPoint" />
          </mxGeometry>
        </mxCell>
        <mxCell id="gY7JCMz-JdeeedZS7ncq-32" value="return employee" style="html=1;verticalAlign=bottom;endArrow=open;dashed=1;endSize=8;rounded=0;entryX=1.05;entryY=0.255;entryDx=0;entryDy=0;entryPerimeter=0;exitX=-0.05;exitY=0.67;exitDx=0;exitDy=0;exitPerimeter=0;" edge="1" parent="1" source="gY7JCMz-JdeeedZS7ncq-29" target="gY7JCMz-JdeeedZS7ncq-28">
          <mxGeometry relative="1" as="geometry">
            <mxPoint x="660" y="470" as="sourcePoint" />
            <mxPoint x="580" y="470" as="targetPoint" />
          </mxGeometry>
        </mxCell>
        <mxCell id="gY7JCMz-JdeeedZS7ncq-40" value="employeeList.add(employee);" style="endArrow=block;endFill=1;html=1;edgeStyle=orthogonalEdgeStyle;align=left;verticalAlign=top;rounded=0;" edge="1" parent="1">
          <mxGeometry x="-0.1269" y="10" relative="1" as="geometry">
            <mxPoint x="464" y="570" as="sourcePoint" />
            <mxPoint x="465" y="690" as="targetPoint" />
            <Array as="points">
              <mxPoint x="464" y="590" />
              <mxPoint x="520" y="590" />
              <mxPoint x="520" y="690" />
            </Array>
            <mxPoint as="offset" />
          </mxGeometry>
        </mxCell>
        <mxCell id="gY7JCMz-JdeeedZS7ncq-42" value=": JobHistDA&lt;br/&gt;" style="rounded=0;whiteSpace=wrap;html=1;" vertex="1" parent="1">
          <mxGeometry x="810" y="164" width="120" height="60" as="geometry" />
        </mxCell>
        <mxCell id="gY7JCMz-JdeeedZS7ncq-43" value="" style="endArrow=none;dashed=1;html=1;dashPattern=1 3;strokeWidth=2;rounded=0;entryX=0.5;entryY=1;entryDx=0;entryDy=0;exitX=0.5;exitY=0;exitDx=0;exitDy=0;" edge="1" parent="1">
          <mxGeometry width="50" height="50" relative="1" as="geometry">
            <mxPoint x="870" y="290" as="sourcePoint" />
            <mxPoint x="869.3800000000001" y="224" as="targetPoint" />
          </mxGeometry>
        </mxCell>
        <mxCell id="gY7JCMz-JdeeedZS7ncq-44" value="" style="html=1;points=[];perimeter=orthogonalPerimeter;fillColor=#66FFB3;" vertex="1" parent="1">
          <mxGeometry x="865" y="286" width="10" height="714" as="geometry" />
        </mxCell>
        <mxCell id="gY7JCMz-JdeeedZS7ncq-45" value="create()" style="html=1;verticalAlign=bottom;endArrow=block;rounded=0;" edge="1" parent="1">
          <mxGeometry width="80" relative="1" as="geometry">
            <mxPoint x="464" y="740" as="sourcePoint" />
            <mxPoint x="860" y="740" as="targetPoint" />
          </mxGeometry>
        </mxCell>
        <mxCell id="gY7JCMz-JdeeedZS7ncq-46" value="return JobHistDA" style="html=1;verticalAlign=bottom;endArrow=open;dashed=1;endSize=8;rounded=0;" edge="1" parent="1">
          <mxGeometry relative="1" as="geometry">
            <mxPoint x="860" y="820" as="sourcePoint" />
            <mxPoint x="464" y="820" as="targetPoint" />
          </mxGeometry>
        </mxCell>
        <mxCell id="gY7JCMz-JdeeedZS7ncq-48" value=": : JobHistory&lt;br/&gt;" style="rounded=0;whiteSpace=wrap;html=1;" vertex="1" parent="1">
          <mxGeometry x="1040" y="164" width="120" height="60" as="geometry" />
        </mxCell>
        <mxCell id="gY7JCMz-JdeeedZS7ncq-49" value="" style="endArrow=none;dashed=1;html=1;dashPattern=1 3;strokeWidth=2;rounded=0;entryX=0.5;entryY=1;entryDx=0;entryDy=0;exitX=0.5;exitY=0;exitDx=0;exitDy=0;" edge="1" parent="1">
          <mxGeometry width="50" height="50" relative="1" as="geometry">
            <mxPoint x="1100" y="290" as="sourcePoint" />
            <mxPoint x="1099.38" y="224" as="targetPoint" />
          </mxGeometry>
        </mxCell>
        <mxCell id="gY7JCMz-JdeeedZS7ncq-50" value="" style="html=1;points=[];perimeter=orthogonalPerimeter;fillColor=#66FFB3;" vertex="1" parent="1">
          <mxGeometry x="1095" y="286" width="10" height="214" as="geometry" />
        </mxCell>
        <mxCell id="gY7JCMz-JdeeedZS7ncq-51" value="create()" style="html=1;verticalAlign=bottom;endArrow=block;rounded=0;" edge="1" parent="1">
          <mxGeometry width="80" relative="1" as="geometry">
            <mxPoint x="879" y="420" as="sourcePoint" />
            <mxPoint x="1095" y="420" as="targetPoint" />
          </mxGeometry>
        </mxCell>
        <mxCell id="gY7JCMz-JdeeedZS7ncq-52" value="return jobHistory" style="html=1;verticalAlign=bottom;endArrow=open;dashed=1;endSize=8;rounded=0;" edge="1" parent="1">
          <mxGeometry relative="1" as="geometry">
            <mxPoint x="1095" y="460" as="sourcePoint" />
            <mxPoint x="880" y="460" as="targetPoint" />
            <Array as="points">
              <mxPoint x="1055" y="460" />
            </Array>
          </mxGeometry>
        </mxCell>
        <mxCell id="gY7JCMz-JdeeedZS7ncq-53" value="&lt;div&gt;jobHisList.add(jobHistory);&lt;/div&gt;&lt;div&gt;&lt;br&gt;&lt;/div&gt;" style="html=1;verticalAlign=bottom;endArrow=block;rounded=0;edgeStyle=orthogonalEdgeStyle;" edge="1" parent="1">
          <mxGeometry x="0.1351" y="40" width="80" relative="1" as="geometry">
            <mxPoint x="875" y="860" as="sourcePoint" />
            <mxPoint x="880" y="920" as="targetPoint" />
            <Array as="points">
              <mxPoint x="940" y="860" />
              <mxPoint x="940" y="920" />
            </Array>
            <mxPoint as="offset" />
          </mxGeometry>
        </mxCell>
        <mxCell id="gY7JCMz-JdeeedZS7ncq-54" value=": JobDA" style="rounded=0;whiteSpace=wrap;html=1;" vertex="1" parent="1">
          <mxGeometry x="1210" y="164" width="120" height="60" as="geometry" />
        </mxCell>
        <mxCell id="gY7JCMz-JdeeedZS7ncq-55" value="" style="endArrow=none;dashed=1;html=1;dashPattern=1 3;strokeWidth=2;rounded=0;entryX=0.5;entryY=1;entryDx=0;entryDy=0;exitX=0.5;exitY=0;exitDx=0;exitDy=0;" edge="1" parent="1">
          <mxGeometry width="50" height="50" relative="1" as="geometry">
            <mxPoint x="1270" y="290" as="sourcePoint" />
            <mxPoint x="1269.3800000000003" y="224" as="targetPoint" />
          </mxGeometry>
        </mxCell>
        <mxCell id="gY7JCMz-JdeeedZS7ncq-56" value="" style="html=1;points=[];perimeter=orthogonalPerimeter;fillColor=#66FFB3;" vertex="1" parent="1">
          <mxGeometry x="1265" y="286" width="10" height="394" as="geometry" />
        </mxCell>
        <mxCell id="gY7JCMz-JdeeedZS7ncq-58" value="create()" style="html=1;verticalAlign=bottom;endArrow=block;rounded=0;" edge="1" parent="1">
          <mxGeometry width="80" relative="1" as="geometry">
            <mxPoint x="875" y="570" as="sourcePoint" />
            <mxPoint x="1260" y="570" as="targetPoint" />
          </mxGeometry>
        </mxCell>
        <mxCell id="gY7JCMz-JdeeedZS7ncq-59" value="return JobDA" style="html=1;verticalAlign=bottom;endArrow=open;dashed=1;endSize=8;rounded=0;" edge="1" parent="1">
          <mxGeometry relative="1" as="geometry">
            <mxPoint x="1265" y="620" as="sourcePoint" />
            <mxPoint x="880" y="620" as="targetPoint" />
          </mxGeometry>
        </mxCell>
        <mxCell id="gY7JCMz-JdeeedZS7ncq-60" value="&lt;div&gt;jobList.add(job);&lt;br&gt;&lt;/div&gt;" style="html=1;verticalAlign=bottom;endArrow=block;rounded=0;edgeStyle=orthogonalEdgeStyle;" edge="1" parent="1">
          <mxGeometry x="0.1351" y="40" width="80" relative="1" as="geometry">
            <mxPoint x="1275" y="590" as="sourcePoint" />
            <mxPoint x="1280" y="650" as="targetPoint" />
            <Array as="points">
              <mxPoint x="1340" y="590" />
              <mxPoint x="1340" y="650" />
            </Array>
            <mxPoint as="offset" />
          </mxGeometry>
        </mxCell>
        <mxCell id="gY7JCMz-JdeeedZS7ncq-65" value=": Job&lt;br/&gt;" style="rounded=0;whiteSpace=wrap;html=1;" vertex="1" parent="1">
          <mxGeometry x="1400" y="165" width="120" height="60" as="geometry" />
        </mxCell>
        <mxCell id="gY7JCMz-JdeeedZS7ncq-66" value="" style="endArrow=none;dashed=1;html=1;dashPattern=1 3;strokeWidth=2;rounded=0;entryX=0.5;entryY=1;entryDx=0;entryDy=0;exitX=0.5;exitY=0;exitDx=0;exitDy=0;" edge="1" parent="1">
          <mxGeometry width="50" height="50" relative="1" as="geometry">
            <mxPoint x="1460" y="291" as="sourcePoint" />
            <mxPoint x="1459.38" y="225" as="targetPoint" />
          </mxGeometry>
        </mxCell>
        <mxCell id="gY7JCMz-JdeeedZS7ncq-67" value="" style="html=1;points=[];perimeter=orthogonalPerimeter;fillColor=#66FFB3;" vertex="1" parent="1">
          <mxGeometry x="1455" y="287" width="10" height="283" as="geometry" />
        </mxCell>
        <mxCell id="gY7JCMz-JdeeedZS7ncq-69" value="create()" style="html=1;verticalAlign=bottom;endArrow=block;rounded=0;" edge="1" parent="1">
          <mxGeometry width="80" relative="1" as="geometry">
            <mxPoint x="1280" y="500" as="sourcePoint" />
            <mxPoint x="1450" y="500" as="targetPoint" />
          </mxGeometry>
        </mxCell>
        <mxCell id="gY7JCMz-JdeeedZS7ncq-70" value="return job&lt;br/&gt;" style="html=1;verticalAlign=bottom;endArrow=open;dashed=1;endSize=8;rounded=0;" edge="1" parent="1">
          <mxGeometry relative="1" as="geometry">
            <mxPoint x="1455" y="529.5699999999999" as="sourcePoint" />
            <mxPoint x="1280" y="530" as="targetPoint" />
          </mxGeometry>
        </mxCell>
        <mxCell id="gY7JCMz-JdeeedZS7ncq-71" value=": DepartmentDA" style="rounded=0;whiteSpace=wrap;html=1;" vertex="1" parent="1">
          <mxGeometry x="1590" y="165" width="120" height="60" as="geometry" />
        </mxCell>
        <mxCell id="gY7JCMz-JdeeedZS7ncq-72" value="" style="endArrow=none;dashed=1;html=1;dashPattern=1 3;strokeWidth=2;rounded=0;entryX=0.5;entryY=1;entryDx=0;entryDy=0;exitX=0.5;exitY=0;exitDx=0;exitDy=0;" edge="1" parent="1">
          <mxGeometry width="50" height="50" relative="1" as="geometry">
            <mxPoint x="1650" y="290.9999999999999" as="sourcePoint" />
            <mxPoint x="1649.38" y="225" as="targetPoint" />
          </mxGeometry>
        </mxCell>
        <mxCell id="gY7JCMz-JdeeedZS7ncq-73" value="" style="html=1;points=[];perimeter=orthogonalPerimeter;fillColor=#66FFB3;" vertex="1" parent="1">
          <mxGeometry x="1645" y="287" width="10" height="573" as="geometry" />
        </mxCell>
        <mxCell id="gY7JCMz-JdeeedZS7ncq-74" value="create()" style="html=1;verticalAlign=bottom;endArrow=block;rounded=0;" edge="1" parent="1">
          <mxGeometry width="80" relative="1" as="geometry">
            <mxPoint x="880" y="810" as="sourcePoint" />
            <mxPoint x="1640" y="810" as="targetPoint" />
          </mxGeometry>
        </mxCell>
        <mxCell id="gY7JCMz-JdeeedZS7ncq-75" value="&#xa;return DepartmentDA&#xa;&#xa;" style="html=1;verticalAlign=bottom;endArrow=open;dashed=1;endSize=8;rounded=0;" edge="1" parent="1">
          <mxGeometry x="-0.0065" y="60" relative="1" as="geometry">
            <mxPoint x="1640" y="840" as="sourcePoint" />
            <mxPoint x="875" y="840" as="targetPoint" />
            <mxPoint as="offset" />
          </mxGeometry>
        </mxCell>
        <mxCell id="gY7JCMz-JdeeedZS7ncq-76" value="&lt;div&gt;&lt;div&gt;departmentList.add(department);&lt;/div&gt;&lt;/div&gt;&lt;div&gt;&lt;br&gt;&lt;/div&gt;" style="html=1;verticalAlign=bottom;endArrow=block;rounded=0;edgeStyle=orthogonalEdgeStyle;" edge="1" parent="1">
          <mxGeometry x="0.1567" y="90" width="80" relative="1" as="geometry">
            <mxPoint x="1655" y="708" as="sourcePoint" />
            <mxPoint x="1660" y="768" as="targetPoint" />
            <Array as="points">
              <mxPoint x="1720" y="708" />
              <mxPoint x="1720" y="768" />
            </Array>
            <mxPoint as="offset" />
          </mxGeometry>
        </mxCell>
        <mxCell id="gY7JCMz-JdeeedZS7ncq-77" value=": Department&lt;br/&gt;" style="rounded=0;whiteSpace=wrap;html=1;" vertex="1" parent="1">
          <mxGeometry x="1840" y="165" width="120" height="60" as="geometry" />
        </mxCell>
        <mxCell id="gY7JCMz-JdeeedZS7ncq-78" value="" style="endArrow=none;dashed=1;html=1;dashPattern=1 3;strokeWidth=2;rounded=0;entryX=0.5;entryY=1;entryDx=0;entryDy=0;exitX=0.5;exitY=0;exitDx=0;exitDy=0;" edge="1" parent="1">
          <mxGeometry width="50" height="50" relative="1" as="geometry">
            <mxPoint x="1900" y="290.9999999999999" as="sourcePoint" />
            <mxPoint x="1899.38" y="225" as="targetPoint" />
          </mxGeometry>
        </mxCell>
        <mxCell id="gY7JCMz-JdeeedZS7ncq-79" value="" style="html=1;points=[];perimeter=orthogonalPerimeter;fillColor=#66FFB3;" vertex="1" parent="1">
          <mxGeometry x="1895" y="287" width="10" height="573" as="geometry" />
        </mxCell>
        <mxCell id="gY7JCMz-JdeeedZS7ncq-83" value="create()" style="html=1;verticalAlign=bottom;endArrow=block;rounded=0;" edge="1" parent="1">
          <mxGeometry width="80" relative="1" as="geometry">
            <mxPoint x="1660" y="640" as="sourcePoint" />
            <mxPoint x="1890" y="640" as="targetPoint" />
          </mxGeometry>
        </mxCell>
        <mxCell id="gY7JCMz-JdeeedZS7ncq-84" value="return Department" style="html=1;verticalAlign=bottom;endArrow=open;dashed=1;endSize=8;rounded=0;" edge="1" parent="1">
          <mxGeometry relative="1" as="geometry">
            <mxPoint x="1890" y="670" as="sourcePoint" />
            <mxPoint x="1655" y="670" as="targetPoint" />
          </mxGeometry>
        </mxCell>
      </root>
    </mxGraphModel>
  </diagram>
</mxfile>
